<?xml version="1.0" encoding="utf-8"?>
<!-- Generator: Adobe Illustrator 16.0.0, SVG Export Plug-In . SVG Version: 6.00 Build 0)  -->
<!DOCTYPE svg PUBLIC "-//W3C//DTD SVG 1.1//EN" "http://www.w3.org/Graphics/SVG/1.1/DTD/svg11.dtd">
<svg version="1.1" id="Layer_1" xmlns="http://www.w3.org/2000/svg" xmlns:xlink="http://www.w3.org/1999/xlink" x="0px" y="0px"
	 width="303.356px" height="46.175px" viewBox="0 0 303.356 46.175" enable-background="new 0 0 303.356 46.175"
	 xml:space="preserve">
<path fill-rule="evenodd" clip-rule="evenodd" fill="#FFFFFF" d="M227.156,2.872L227.156,2.872v10.523l-5.136,10.725h5.136v5.358
	h-7.711l-4.897,9.975h-6.118l18.553-36.872L227.156,2.872z M259.097,10.612L259.097,10.612h-9.187v12.812h9.187v5.272h-9.187v10.756
	h-4.031l3.45,6.723h-6.087l-5.972-11.597l-2.434-5.101h-7.681V24.12h5.102l-5.102-10.725V2.872l17.419,34.029V5.276h14.521V10.612z
	 M268.284,16.9c0-4.2-2.202-6.288-6.638-6.288h-2.55V5.276h1.883c8.32,0,12.497,3.859,12.497,11.563
	c0,5.713-2.178,9.363-6.495,10.959l6.783,11.654h-5.74l-6.233-10.756h-0.812h-1.883v-5.272h2.55
	C266.082,23.424,268.284,21.248,268.284,16.9"/>
<line fill="#FFFFFF" x1="261.79" y1="28.696" x2="260.979" y2="28.696"/>
<line fill="#FFFFFF" x1="261.79" y1="28.696" x2="260.979" y2="28.696"/>
<path fill-rule="evenodd" clip-rule="evenodd" fill="#FFFFFF" d="M191.938,46.175L191.938,46.175h-5.334V5.276h14.522v5.336h-9.188
	v12.812h9.188v5.272h-9.188V46.175z M201.127,5.276h1.856c8.347,0,12.487,3.859,12.487,11.563c0,7.944-4.141,11.857-12.487,11.857
	h-1.856v-5.272h2.521c4.437,0,6.669-2.177,6.669-6.525c0-4.199-2.232-6.287-6.669-6.287h-2.521V5.276z"/>
<polygon fill-rule="evenodd" clip-rule="evenodd" fill="#FFFFFF" points="295.356,39.453 281.677,27.507 281.677,39.478 
	276.344,39.478 276.344,5.277 281.677,5.277 281.677,17.368 295.356,5.305 303.356,5.305 284.083,22.463 303.356,39.453 "/>
<polygon fill-rule="evenodd" clip-rule="evenodd" fill="#FFFFFF" points="41.94,34.145 57.535,34.145 57.535,39.453 36.548,39.453 
	36.548,5.276 57.535,5.276 57.535,10.613 41.94,10.613 41.94,16.438 57.535,16.438 57.535,21.767 41.94,21.767 "/>
<path fill-rule="evenodd" clip-rule="evenodd" fill="#FFFFFF" d="M61.42,5.276L61.42,5.276h12.289c0.752,0,1.507,0.028,2.232,0.091
	v5.245h-0.755H66.75v23.475h8.436c0.263,0,0.492,0,0.755-0.025v5.329c-0.696,0.027-1.393,0.062-2.147,0.062H61.42V5.276z
	 M75.941,5.367c9.738,0.693,14.608,6.172,14.608,16.399c0,11.021-4.87,16.902-14.608,17.625v-5.329
	c6.114-0.294,9.19-4.408,9.19-12.296c0-7.154-3.076-10.862-9.19-11.154V5.367z"/>
<rect x="94.288" y="5.276" fill="#FFFFFF" width="5.333" height="34.176"/>
<polygon fill-rule="evenodd" clip-rule="evenodd" fill="#FFFFFF" points="27.098,39.478 27.098,16.234 17.679,34.347 14.81,34.347 
	5.39,16.234 5.39,39.453 0,39.453 0,5.276 5.39,5.276 16.23,26.261 27.098,5.276 32.462,5.276 32.462,39.478 "/>
<path fill-rule="evenodd" clip-rule="evenodd" fill="#FFFFFF" d="M144.518,13.394L144.518,13.394l-5.101,10.725h5.101v5.359h-7.649
	l-0.408,0.838l-0.087,0.153c-0.522,1.037-2.493,3.766-3.533,4.81c-1.537,1.444-3.28,2.578-5.248,3.417
	c-2.147,0.927-4.406,1.364-6.755,1.364c-2.433,0-4.724-0.438-6.869-1.364c-2.145-0.954-4.058-2.233-5.682-3.854
	c-1.593-1.596-2.898-3.479-3.853-5.623c-0.9-2.114-1.365-4.405-1.365-6.838c0-2.372,0.465-4.669,1.365-6.812
	c0.955-2.142,2.26-4.029,3.853-5.626c1.624-1.649,3.537-2.923,5.682-3.851c2.145-0.961,4.436-1.418,6.869-1.418
	c2.349,0,4.608,0.457,6.813,1.418c0.289,0.144,0.58,0.289,0.867,0.406c0.289,0.142,0.582,0.287,0.87,0.461l-2.927,4.466
	c-0.171-0.06-0.318-0.146-0.463-0.202c-0.117-0.117-0.291-0.179-0.463-0.262c-0.695-0.348-1.48-0.579-2.29-0.724
	c-0.784-0.149-1.598-0.235-2.407-0.235c-1.707,0-3.303,0.32-4.812,1.017c-1.506,0.634-2.812,1.534-3.941,2.666
	c-1.13,1.132-2.031,2.432-2.725,3.941c-0.637,1.508-0.988,3.076-0.988,4.755c0,1.706,0.351,3.3,0.988,4.807
	c0.694,1.48,1.595,2.782,2.725,3.913c1.129,1.133,2.435,2.033,3.941,2.668c1.509,0.669,3.105,0.988,4.812,0.988
	c1.708,0,3.273-0.319,4.755-0.988c1.477-0.635,2.784-1.535,3.885-2.668c0.056-0.024,0.083-0.054,0.116-0.082
	c0.086-0.12,1.361-1.658,2.606-4.001l12.174-24.436l0.144,0.289V13.394z M144.55,13.394h-0.032V2.87l17.42,34.031V0h5.307v34.145
	h15.883v5.308h-19.885l3.448,6.723h-6.114l-5.941-11.597l-2.437-5.101h-7.681v-5.359h5.103L144.55,13.394z"/>
</svg>
